<svg width="270" height="97" viewBox="0 0 270 97" fill="none" xmlns="http://www.w3.org/2000/svg">
<path d="M57.7152 1.4384C51.5165 -0.12922 45.0644 -0.412788 38.7528 0.60502C33.0334 1.57112 27.1504 3.97253 23.4268 8.61174C21.4003 11.1884 20.1135 14.271 19.7049 17.5272C19.2964 20.7834 19.7816 24.0896 21.1084 27.0896C23.9707 33.8898 29.9399 39.052 36.7696 41.5891C46.1957 45.0905 56.5247 44.2853 66.3381 43.4596C67.7177 43.3436 68.2596 41.1528 66.6898 40.8527C51.6589 37.9788 34.9015 34.7884 20.2795 41.1181C9.34981 45.8495 -0.47373 56.9969 0.0176195 69.5145C0.506587 81.9724 10.9032 90.1808 21.8278 93.9138C27.8738 95.905 34.1914 96.9427 40.5548 96.9898C47.5647 97.1125 54.7019 96.134 61.1207 93.1935C67.5648 90.3425 72.6953 85.1524 75.4826 78.6648C78.081 72.4773 78.2784 65.3196 74.8311 59.4136L73.0207 61.2294L84.6548 69.6683C84.9595 69.8384 85.318 69.8838 85.6554 69.795C85.9927 69.7063 86.2828 69.4903 86.4652 69.1921L91.7623 62.2177L90.6197 62.875L122.641 67.106L138.39 69.1867C140.872 69.4385 143.338 69.8388 145.773 70.3854C147.632 70.8568 149.535 71.1356 151.451 71.2176C159.019 71.4875 166.422 68.9578 172.252 64.1097C175.139 61.677 177.505 58.6827 179.206 55.3076C180.906 51.9325 181.908 48.2467 182.149 44.4726C182.478 40.175 181.884 35.8565 180.408 31.8086C178.932 27.7607 176.607 24.0774 173.591 21.0072C173.425 20.8471 173.221 20.7325 172.999 20.6745C172.776 20.6164 172.543 20.6168 172.321 20.6757C172.098 20.7345 171.895 20.8498 171.73 21.0105C171.565 21.1711 171.444 21.3717 171.379 21.5928C169.935 26.3212 169.472 31.2961 170.017 36.211C170.563 41.1258 172.107 45.8765 174.553 50.1703C177.022 54.404 180.35 58.0705 184.322 60.9323C188.294 63.794 192.821 65.7874 197.609 66.7834C203.054 67.9608 208.699 67.8384 214.088 66.4262C215.604 66.0239 215.165 63.9458 213.736 63.8192L186.983 61.4502V64.1046L250.681 68.9886L268.729 70.3723C270.427 70.5026 270.419 67.8476 268.729 67.718L205.03 62.8339L186.983 61.4502C185.279 61.3196 185.301 63.9557 186.983 64.1046L213.736 66.4735L213.384 63.8666C208.983 64.9978 204.397 65.2172 199.908 64.5111C195.419 63.8051 191.121 62.1886 187.276 59.7604C181.288 55.8257 176.744 50.0375 174.335 43.2757C171.927 36.5139 171.785 29.1483 173.932 22.2983L171.72 22.8839C182.235 33.2918 182.254 51.713 171.088 61.626C165.668 66.3729 158.64 68.8555 151.451 68.5628C149.71 68.4859 147.982 68.2228 146.296 67.7778C144.036 67.2639 141.746 66.8942 139.44 66.6707L124.479 64.6939L90.62 60.2204C90.3891 60.2212 90.1624 60.2822 89.9621 60.3975C89.7618 60.5127 89.5948 60.6782 89.4775 60.8777L84.1805 67.8522L85.9909 67.376L74.3566 58.9374C73.2437 58.1301 71.9167 59.675 72.5462 60.7533C78.5299 71.0044 72.0269 83.9325 62.6358 89.4228C57.0235 92.7038 50.4991 94.0508 44.063 94.3003C38.0233 94.5655 31.9775 93.9371 26.1204 92.4355C15.989 89.771 5.28926 83.5938 3.02032 72.5001C0.662019 60.9695 9.2122 49.983 18.8173 44.7692C33.1266 37.002 50.8598 40.5201 65.9864 43.4122L66.3382 40.8053C51.9144 42.0186 33.5873 43.047 24.9363 28.7887C21.7181 23.4846 21.1006 16.9326 24.538 11.57C27.4356 7.05 32.5784 4.64824 37.6501 3.51775C44.0561 2.1957 50.6785 2.35997 57.0115 3.99801C58.6651 4.40616 59.3707 1.84709 57.7152 1.4384Z" fill="#26403D"/>
</svg>
