<svg width="188" height="67" viewBox="0 0 188 67" fill="none" xmlns="http://www.w3.org/2000/svg">
<g clip-path="url(#clip0_15_411)">
<path d="M40.1869 0.993612C35.8708 -0.0891785 31.3782 -0.285045 26.9835 0.417977C23.0011 1.08528 18.9048 2.74399 16.312 5.94839C14.901 7.72818 14.005 9.85738 13.7205 12.1065C13.436 14.3556 13.7739 16.6393 14.6978 18.7114C16.6907 23.4085 20.8471 26.9741 25.6026 28.7266C32.1659 31.145 39.358 30.5889 46.191 30.0186C47.1516 29.9385 47.5289 28.4252 46.4359 28.2179C35.9699 26.2328 24.3018 24.0292 14.1206 28.4012C6.51028 31.6693 -0.329814 39.3691 0.0123109 48.0153C0.352777 56.6202 7.59188 62.2899 15.1987 64.8683C19.4085 66.2437 23.8074 66.9605 28.2382 66.993C33.1192 67.0778 38.0888 66.4019 42.5582 64.3709C47.0452 62.4016 50.6175 58.8167 52.5583 54.3355C54.3676 50.0617 54.505 45.1177 52.1046 41.0383L50.844 42.2925L58.9448 48.1215C59.1571 48.239 59.4067 48.2703 59.6416 48.209C59.8764 48.1477 60.0785 47.9985 60.2054 47.7926L63.8938 42.9752L63.0982 43.4292L85.3946 46.3516L96.3603 47.7888C98.0889 47.9627 99.8055 48.2392 101.501 48.6168C102.796 48.9424 104.121 49.135 105.455 49.1916C110.725 49.378 115.879 47.6307 119.939 44.282C121.949 42.6017 123.596 40.5335 124.78 38.2022C125.965 35.871 126.662 33.3251 126.83 30.7183C127.059 27.7498 126.646 24.767 125.618 21.971C124.589 19.175 122.971 16.6308 120.871 14.5102C120.755 14.3996 120.613 14.3205 120.459 14.2804C120.304 14.2403 120.141 14.2406 119.986 14.2812C119.831 14.3219 119.69 14.4015 119.575 14.5125C119.46 14.6234 119.376 14.762 119.331 14.9147C118.325 18.1807 118.003 21.617 118.383 25.0118C118.763 28.4066 119.837 31.688 121.54 34.6538C123.26 37.5781 125.577 40.1106 128.343 42.0873C131.108 44.064 134.26 45.4409 137.594 46.1288C141.386 46.942 145.316 46.8575 149.069 45.8821C150.124 45.6042 149.819 44.1688 148.824 44.0814L130.195 42.4451V44.2785L174.548 47.652L187.115 48.6078C188.297 48.6977 188.292 46.8639 187.115 46.7743L142.762 43.4008L130.195 42.4451C129.009 42.3549 129.025 44.1756 130.195 44.2785L148.824 45.9148L148.579 44.1141C145.514 44.8955 142.321 45.047 139.195 44.5593C136.07 44.0717 133.077 42.9551 130.4 41.2779C126.23 38.5601 123.066 34.5621 121.389 29.8916C119.712 25.221 119.613 20.1334 121.108 15.402L119.568 15.8065C126.89 22.9954 126.903 35.7194 119.128 42.5665C115.354 45.8453 110.461 47.5601 105.455 47.3579C104.243 47.3048 103.039 47.123 101.866 46.8157C100.292 46.4607 98.6975 46.2053 97.0916 46.0509L86.6743 44.6856L63.0984 41.5956C62.9377 41.5962 62.7798 41.6383 62.6403 41.7179C62.5008 41.7975 62.3846 41.9118 62.3029 42.0496L58.6146 46.8671L59.8752 46.5381L51.7742 40.7094C50.9993 40.1518 50.0754 41.2189 50.5137 41.9637C54.6801 49.0443 50.1521 57.9741 43.6131 61.7663C39.7053 64.0326 35.1624 64.963 30.6809 65.1354C26.4755 65.3185 22.2659 64.8845 18.1875 63.8472C11.1331 62.0069 3.68293 57.7401 2.10308 50.0775C0.461004 42.113 6.41446 34.5244 13.1025 30.9231C23.066 25.5581 35.4136 27.9882 45.9461 29.9858L46.1911 28.1851C36.1479 29.0232 23.3867 29.7336 17.3631 19.8851C15.1223 16.2214 14.6923 11.6958 17.0857 7.99175C19.1034 4.86967 22.6842 3.21072 26.2157 2.42986C30.6761 1.51669 35.2873 1.63016 39.6969 2.76159C40.8484 3.04351 41.3396 1.2759 40.1869 0.993612Z" fill="#E8D7C8"/>
</g>
<defs>
<clipPath id="clip0_15_411">
<rect width="188" height="67" fill="white"/>
</clipPath>
</defs>
</svg>
